<svg width="250" height="250" viewBox="0 0 250 250" fill="none" xmlns="http://www.w3.org/2000/svg">
<path d="M118.189 168.436V181H115.669V172.828L112.303 181H110.395L107.011 172.828V181H104.491V168.436H107.353L111.349 177.778L115.345 168.436H118.189ZM125.072 168.436C126.392 168.436 127.55 168.694 128.546 169.21C129.554 169.726 130.328 170.464 130.868 171.424C131.42 172.372 131.696 173.476 131.696 174.736C131.696 175.996 131.42 177.1 130.868 178.048C130.328 178.984 129.554 179.71 128.546 180.226C127.55 180.742 126.392 181 125.072 181H120.68V168.436H125.072ZM124.982 178.858C126.302 178.858 127.322 178.498 128.042 177.778C128.762 177.058 129.122 176.044 129.122 174.736C129.122 173.428 128.762 172.408 128.042 171.676C127.322 170.932 126.302 170.56 124.982 170.56H123.2V178.858H124.982ZM132.97 174.7C132.97 173.464 133.246 172.36 133.798 171.388C134.362 170.404 135.124 169.642 136.084 169.102C137.056 168.55 138.142 168.274 139.342 168.274C140.746 168.274 141.976 168.634 143.032 169.354C144.088 170.074 144.826 171.07 145.246 172.342H142.348C142.06 171.742 141.652 171.292 141.124 170.992C140.608 170.692 140.008 170.542 139.324 170.542C138.592 170.542 137.938 170.716 137.362 171.064C136.798 171.4 136.354 171.88 136.03 172.504C135.718 173.128 135.562 173.86 135.562 174.7C135.562 175.528 135.718 176.26 136.03 176.896C136.354 177.52 136.798 178.006 137.362 178.354C137.938 178.69 138.592 178.858 139.324 178.858C140.008 178.858 140.608 178.708 141.124 178.408C141.652 178.096 142.06 177.64 142.348 177.04H145.246C144.826 178.324 144.088 179.326 143.032 180.046C141.988 180.754 140.758 181.108 139.342 181.108C138.142 181.108 137.056 180.838 136.084 180.298C135.124 179.746 134.362 178.984 133.798 178.012C133.246 177.04 132.97 175.936 132.97 174.7Z" fill="white"/>
<path d="M77.1207 187.03L75.1007 194H74.0807L72.4607 188.39L70.7807 194L69.7707 194.01L67.8207 187.03H68.7907L70.3107 192.94L71.9907 187.03H73.0107L74.6107 192.92L76.1407 187.03H77.1207ZM81.2766 194.07C80.6299 194.07 80.0399 193.92 79.5066 193.62C78.9732 193.313 78.5499 192.89 78.2366 192.35C77.9299 191.803 77.7766 191.19 77.7766 190.51C77.7766 189.83 77.9299 189.22 78.2366 188.68C78.5499 188.133 78.9732 187.71 79.5066 187.41C80.0399 187.103 80.6299 186.95 81.2766 186.95C81.9299 186.95 82.5232 187.103 83.0566 187.41C83.5899 187.71 84.0099 188.13 84.3166 188.67C84.6232 189.21 84.7766 189.823 84.7766 190.51C84.7766 191.197 84.6232 191.81 84.3166 192.35C84.0099 192.89 83.5899 193.313 83.0566 193.62C82.5232 193.92 81.9299 194.07 81.2766 194.07ZM81.2766 193.28C81.7632 193.28 82.1999 193.167 82.5866 192.94C82.9799 192.713 83.2866 192.39 83.5066 191.97C83.7332 191.55 83.8466 191.063 83.8466 190.51C83.8466 189.95 83.7332 189.463 83.5066 189.05C83.2866 188.63 82.9832 188.307 82.5966 188.08C82.2099 187.853 81.7699 187.74 81.2766 187.74C80.7832 187.74 80.3432 187.853 79.9566 188.08C79.5699 188.307 79.2632 188.63 79.0366 189.05C78.8166 189.463 78.7066 189.95 78.7066 190.51C78.7066 191.063 78.8166 191.55 79.0366 191.97C79.2632 192.39 79.5699 192.713 79.9566 192.94C80.3499 193.167 80.7899 193.28 81.2766 193.28ZM89.6479 194L87.9879 191.15H86.8879V194H85.9779V187.03H88.2279C88.7545 187.03 89.1979 187.12 89.5579 187.3C89.9245 187.48 90.1979 187.723 90.3779 188.03C90.5579 188.337 90.6479 188.687 90.6479 189.08C90.6479 189.56 90.5079 189.983 90.2279 190.35C89.9545 190.717 89.5412 190.96 88.9879 191.08L90.7379 194H89.6479ZM86.8879 190.42H88.2279C88.7212 190.42 89.0912 190.3 89.3379 190.06C89.5845 189.813 89.7079 189.487 89.7079 189.08C89.7079 188.667 89.5845 188.347 89.3379 188.12C89.0979 187.893 88.7279 187.78 88.2279 187.78H86.8879V190.42ZM95.8419 194L92.9719 190.82V194H92.0619V187.03H92.9719V190.26L95.8519 187.03H97.0019L93.8419 190.52L97.0319 194H95.8419ZM106.084 187.03V194H105.174V190.84H101.624V194H100.714V187.03H101.624V190.09H105.174V187.03H106.084ZM111.758 192.45H108.718L108.158 194H107.198L109.718 187.07H110.768L113.278 194H112.318L111.758 192.45ZM111.498 191.71L110.238 188.19L108.978 191.71H111.498ZM118.046 194L116.386 191.15H115.286V194H114.376V187.03H116.626C117.153 187.03 117.596 187.12 117.956 187.3C118.323 187.48 118.596 187.723 118.776 188.03C118.956 188.337 119.046 188.687 119.046 189.08C119.046 189.56 118.906 189.983 118.626 190.35C118.353 190.717 117.94 190.96 117.386 191.08L119.136 194H118.046ZM115.286 190.42H116.626C117.12 190.42 117.49 190.3 117.736 190.06C117.983 189.813 118.106 189.487 118.106 189.08C118.106 188.667 117.983 188.347 117.736 188.12C117.496 187.893 117.126 187.78 116.626 187.78H115.286V190.42ZM122.63 187.03C123.39 187.03 124.047 187.173 124.6 187.46C125.16 187.74 125.587 188.143 125.88 188.67C126.18 189.197 126.33 189.817 126.33 190.53C126.33 191.243 126.18 191.863 125.88 192.39C125.587 192.91 125.16 193.31 124.6 193.59C124.047 193.863 123.39 194 122.63 194H120.46V187.03H122.63ZM122.63 193.25C123.53 193.25 124.217 193.013 124.69 192.54C125.164 192.06 125.4 191.39 125.4 190.53C125.4 189.663 125.16 188.987 124.68 188.5C124.207 188.013 123.524 187.77 122.63 187.77H121.37V193.25H122.63ZM133.687 190.41C133.94 190.45 134.17 190.553 134.377 190.72C134.59 190.887 134.757 191.093 134.877 191.34C135.003 191.587 135.067 191.85 135.067 192.13C135.067 192.483 134.977 192.803 134.797 193.09C134.617 193.37 134.353 193.593 134.007 193.76C133.667 193.92 133.263 194 132.797 194H130.197V187.03H132.697C133.17 187.03 133.573 187.11 133.907 187.27C134.24 187.423 134.49 187.633 134.657 187.9C134.823 188.167 134.907 188.467 134.907 188.8C134.907 189.213 134.793 189.557 134.567 189.83C134.347 190.097 134.053 190.29 133.687 190.41ZM131.107 190.04H132.637C133.063 190.04 133.393 189.94 133.627 189.74C133.86 189.54 133.977 189.263 133.977 188.91C133.977 188.557 133.86 188.28 133.627 188.08C133.393 187.88 133.057 187.78 132.617 187.78H131.107V190.04ZM132.717 193.25C133.17 193.25 133.523 193.143 133.777 192.93C134.03 192.717 134.157 192.42 134.157 192.04C134.157 191.653 134.023 191.35 133.757 191.13C133.49 190.903 133.133 190.79 132.687 190.79H131.107V193.25H132.717ZM137.219 187.03V191.44C137.219 192.06 137.369 192.52 137.669 192.82C137.976 193.12 138.399 193.27 138.939 193.27C139.473 193.27 139.889 193.12 140.189 192.82C140.496 192.52 140.649 192.06 140.649 191.44V187.03H141.559V191.43C141.559 192.01 141.443 192.5 141.209 192.9C140.976 193.293 140.659 193.587 140.259 193.78C139.866 193.973 139.423 194.07 138.929 194.07C138.436 194.07 137.989 193.973 137.589 193.78C137.196 193.587 136.883 193.293 136.649 192.9C136.423 192.5 136.309 192.01 136.309 191.43V187.03H137.219ZM147.367 187.03V187.77H145.467V194H144.557V187.77H142.647V187.03H147.367ZM153.364 194.07C152.904 194.07 152.49 193.99 152.124 193.83C151.764 193.663 151.48 193.437 151.274 193.15C151.067 192.857 150.96 192.52 150.954 192.14H151.924C151.957 192.467 152.09 192.743 152.324 192.97C152.564 193.19 152.91 193.3 153.364 193.3C153.797 193.3 154.137 193.193 154.384 192.98C154.637 192.76 154.764 192.48 154.764 192.14C154.764 191.873 154.69 191.657 154.544 191.49C154.397 191.323 154.214 191.197 153.994 191.11C153.774 191.023 153.477 190.93 153.104 190.83C152.644 190.71 152.274 190.59 151.994 190.47C151.72 190.35 151.484 190.163 151.284 189.91C151.09 189.65 150.994 189.303 150.994 188.87C150.994 188.49 151.09 188.153 151.284 187.86C151.477 187.567 151.747 187.34 152.094 187.18C152.447 187.02 152.85 186.94 153.304 186.94C153.957 186.94 154.49 187.103 154.904 187.43C155.324 187.757 155.56 188.19 155.614 188.73H154.614C154.58 188.463 154.44 188.23 154.194 188.03C153.947 187.823 153.62 187.72 153.214 187.72C152.834 187.72 152.524 187.82 152.284 188.02C152.044 188.213 151.924 188.487 151.924 188.84C151.924 189.093 151.994 189.3 152.134 189.46C152.28 189.62 152.457 189.743 152.664 189.83C152.877 189.91 153.174 190.003 153.554 190.11C154.014 190.237 154.384 190.363 154.664 190.49C154.944 190.61 155.184 190.8 155.384 191.06C155.584 191.313 155.684 191.66 155.684 192.1C155.684 192.44 155.594 192.76 155.414 193.06C155.234 193.36 154.967 193.603 154.614 193.79C154.26 193.977 153.844 194.07 153.364 194.07ZM164.093 187.08V194H163.183V188.84L160.883 194H160.243L157.933 188.83V194H157.023V187.08H158.003L160.563 192.8L163.123 187.08H164.093ZM169.756 192.45H166.716L166.156 194H165.196L167.716 187.07H168.766L171.276 194H170.316L169.756 192.45ZM169.496 191.71L168.236 188.19L166.976 191.71H169.496ZM176.044 194L174.384 191.15H173.284V194H172.374V187.03H174.624C175.151 187.03 175.594 187.12 175.954 187.3C176.321 187.48 176.594 187.723 176.774 188.03C176.954 188.337 177.044 188.687 177.044 189.08C177.044 189.56 176.904 189.983 176.624 190.35C176.351 190.717 175.938 190.96 175.384 191.08L177.134 194H176.044ZM173.284 190.42H174.624C175.118 190.42 175.488 190.3 175.734 190.06C175.981 189.813 176.104 189.487 176.104 189.08C176.104 188.667 175.981 188.347 175.734 188.12C175.494 187.893 175.124 187.78 174.624 187.78H173.284V190.42ZM182.748 187.03V187.77H180.848V194H179.938V187.77H178.028V187.03H182.748Z" fill="white"/>
<path d="M125.33 99.7778C125.236 99.8786 125.178 100.008 125.165 100.145C125.152 100.282 125.185 100.42 125.258 100.536C125.331 100.653 125.441 100.742 125.571 100.79C125.7 100.837 125.842 100.841 125.973 100.799C126.288 100.699 126.512 100.822 126.645 101.168C126.671 101.241 126.724 101.3 126.794 101.335C126.863 101.37 126.943 101.378 127.018 101.358C127.709 101.168 128.33 101.288 128.882 101.717C128.995 101.808 129.125 101.854 129.27 101.854L132.538 101.849C132.692 101.849 132.841 101.801 132.964 101.712C133.137 101.583 133.317 101.468 133.503 101.367C133.692 101.263 133.85 101.127 133.976 100.96C136.136 98.0531 139.007 96.6105 142.589 96.6326C145.24 96.6483 147.485 96.5537 149.324 96.3488C149.483 96.3335 149.634 96.269 149.754 96.1643C151.422 94.7107 152.663 93.8121 153.476 93.4684C155.315 92.6959 156.773 92.3995 157.851 92.5792C159.318 92.8251 162.33 93.2224 162.137 90.9238C161.777 86.6008 161.829 81.5779 160.817 77.7231C160.316 75.8186 159.608 73.9283 158.693 72.0522C158.135 70.9076 157.572 70.6049 156.272 70.4251C153.437 70.0373 150.646 69.5628 147.9 69.0015C147.72 68.9651 147.55 68.8902 147.402 68.7818C147.253 68.6735 147.13 68.5343 147.041 68.3739C146.951 68.2134 146.898 68.0355 146.884 67.8524C146.869 67.6693 146.895 67.4853 146.959 67.313C147.681 65.3517 148.499 63.5292 149.414 61.8454C150.331 60.1569 153.609 61.3866 154.796 62.186C157.066 63.7184 159.244 65.3706 161.328 67.1427C162.261 67.9342 163.108 68.8943 163.868 70.0231C169.212 77.9407 174.637 84.69 176.113 94.036C176.217 94.7044 175.938 95.3902 175.276 96.0934C172.564 98.9785 169.786 101.796 166.942 104.545C164.498 106.907 161.692 108.635 158.523 109.729C156.783 110.33 154.612 110.633 152.653 111.039C147.309 112.151 147.725 117.108 146.718 121.492C146.484 122.507 146.114 123.657 145.606 124.94C144.61 127.469 143.727 130.036 142.958 132.64C142.253 135.038 141.406 137.129 140.555 139.375C138.923 143.684 139.713 147.094 140.73 151.408C140.944 152.306 141.209 153.735 141.524 155.693C141.928 158.199 142.642 160.804 143.667 163.506C143.697 163.587 143.707 163.674 143.696 163.76C143.685 163.845 143.654 163.927 143.605 163.997C143.557 164.068 143.492 164.125 143.416 164.165C143.34 164.205 143.256 164.225 143.17 164.225L106.756 164.22C106.532 164.22 106.453 164.113 106.52 163.899C107.357 161.184 108.695 158.46 109.22 155.92C109.76 153.315 110.184 150.485 110.493 147.43C110.729 145.07 110.54 143.239 109.575 140.997C108.355 138.172 106.731 135.62 104.703 133.34C104.672 133.305 104.634 133.277 104.59 133.258C104.547 133.239 104.5 133.229 104.453 133.23C104.406 133.231 104.359 133.242 104.317 133.263C104.274 133.283 104.237 133.313 104.207 133.349C102.953 134.868 101.847 136.622 100.518 137.881C96.7953 141.404 92.0798 143.693 87.6055 145.803C85.4771 146.806 81.6555 147.458 79.6264 146.044C77.9001 144.838 76.2778 140.491 75.6676 138.5C75.1001 136.656 74.8904 134.77 75.0386 132.843C75.0475 132.695 74.9983 132.549 74.9014 132.437C74.3386 131.784 74.523 129.585 74.5514 128.379C74.5987 126.226 75.2372 123.829 75.3318 121.483C75.6109 114.766 78.6947 109.866 82.3649 104.295C82.633 103.891 82.923 103.584 83.2352 103.372C83.3708 103.281 83.5174 103.257 83.6751 103.302C85.7798 103.869 89.3933 105.118 89.9609 107.525C90.1879 108.509 89.2703 109.081 88.7879 109.639C87.3122 111.351 85.8176 112.739 84.3041 113.801C81.0785 116.067 81.4757 118.858 82.6393 122.339C83.4275 124.694 84.6825 126.807 86.4041 128.676C86.5523 128.837 86.6564 128.993 86.7163 129.145C86.7325 129.188 86.762 129.224 86.8005 129.249C86.8391 129.273 86.8846 129.285 86.9302 129.282C86.9759 129.279 87.0193 129.261 87.0541 129.231C87.0888 129.201 87.113 129.161 87.123 129.116C87.5298 127.36 88.4064 125.881 89.7528 124.68C90.8312 123.72 92.2832 122.897 92.7467 121.468C93.6406 118.716 95.192 115.887 96.8616 113.934C99.3399 111.039 104.193 109.852 107.958 110.141C108.029 110.147 108.1 110.138 108.167 110.114C108.234 110.09 108.295 110.053 108.345 110.004L112.541 105.874C112.623 105.795 112.673 105.689 112.683 105.576C113.127 100.421 107.896 97.6164 103.97 95.1758C102.416 94.211 101.315 92.8756 100.669 91.1697C99.846 89.0083 100.366 86.5393 101.062 84.3637C101.386 83.342 101.914 82.5049 102.646 81.8522C106.349 78.5461 110.412 76.536 115.199 78.5697C117.162 79.4022 118.68 81.5826 120.137 83.186C121.773 84.9927 122.809 87.3056 124.431 89.2731C124.538 89.4024 124.553 89.5411 124.474 89.6893L124.341 89.9306C124.262 90.0756 124.251 90.2254 124.308 90.3799C124.92 92.0353 125.516 93.6923 126.096 95.3508C126.471 96.4166 126.635 97.3704 126.588 98.2123C126.582 98.3763 126.52 98.5197 126.403 98.6427L125.33 99.7778Z" fill="white"/>
</svg>
