<svg width="289" height="296" viewBox="0 0 289 296" fill="none" xmlns="http://www.w3.org/2000/svg">
<path d="M129.2 229.08V257H123.6V238.84L116.12 257H111.88L104.36 238.84V257H98.76V229.08H105.12L114 249.84L122.88 229.08H129.2ZM144.497 229.08C147.43 229.08 150.003 229.653 152.217 230.8C154.457 231.947 156.177 233.587 157.377 235.72C158.603 237.827 159.217 240.28 159.217 243.08C159.217 245.88 158.603 248.333 157.377 250.44C156.177 252.52 154.457 254.133 152.217 255.28C150.003 256.427 147.43 257 144.497 257H134.737V229.08H144.497ZM144.297 252.24C147.23 252.24 149.497 251.44 151.097 249.84C152.697 248.24 153.497 245.987 153.497 243.08C153.497 240.173 152.697 237.907 151.097 236.28C149.497 234.627 147.23 233.8 144.297 233.8H140.337V252.24H144.297ZM162.048 243C162.048 240.253 162.662 237.8 163.888 235.64C165.142 233.453 166.835 231.76 168.968 230.56C171.128 229.333 173.542 228.72 176.208 228.72C179.328 228.72 182.062 229.52 184.408 231.12C186.755 232.72 188.395 234.933 189.328 237.76H182.888C182.248 236.427 181.342 235.427 180.168 234.76C179.022 234.093 177.688 233.76 176.168 233.76C174.542 233.76 173.088 234.147 171.808 234.92C170.555 235.667 169.568 236.733 168.848 238.12C168.155 239.507 167.808 241.133 167.808 243C167.808 244.84 168.155 246.467 168.848 247.88C169.568 249.267 170.555 250.347 171.808 251.12C173.088 251.867 174.542 252.24 176.168 252.24C177.688 252.24 179.022 251.907 180.168 251.24C181.342 250.547 182.248 249.533 182.888 248.2H189.328C188.395 251.053 186.755 253.28 184.408 254.88C182.088 256.453 179.355 257.24 176.208 257.24C173.542 257.24 171.128 256.64 168.968 255.44C166.835 254.213 165.142 252.52 163.888 250.36C162.662 248.2 162.048 245.747 162.048 243Z" fill="white"/>
<path d="M23.825 269.575L18.775 287H16.225L12.175 272.975L7.975 287L5.45 287.025L0.575 269.575H3L6.8 284.35L11 269.575H13.55L17.55 284.3L21.375 269.575H23.825ZM34.2146 287.175C32.598 287.175 31.123 286.8 29.7896 286.05C28.4563 285.283 27.398 284.225 26.6146 282.875C25.848 281.508 25.4646 279.975 25.4646 278.275C25.4646 276.575 25.848 275.05 26.6146 273.7C27.398 272.333 28.4563 271.275 29.7896 270.525C31.123 269.758 32.598 269.375 34.2146 269.375C35.848 269.375 37.3313 269.758 38.6646 270.525C39.998 271.275 41.048 272.325 41.8146 273.675C42.5813 275.025 42.9646 276.558 42.9646 278.275C42.9646 279.992 42.5813 281.525 41.8146 282.875C41.048 284.225 39.998 285.283 38.6646 286.05C37.3313 286.8 35.848 287.175 34.2146 287.175ZM34.2146 285.2C35.4313 285.2 36.523 284.917 37.4896 284.35C38.473 283.783 39.2396 282.975 39.7896 281.925C40.3563 280.875 40.6396 279.658 40.6396 278.275C40.6396 276.875 40.3563 275.658 39.7896 274.625C39.2396 273.575 38.4813 272.767 37.5146 272.2C36.548 271.633 35.448 271.35 34.2146 271.35C32.9813 271.35 31.8813 271.633 30.9146 272.2C29.948 272.767 29.1813 273.575 28.6146 274.625C28.0646 275.658 27.7896 276.875 27.7896 278.275C27.7896 279.658 28.0646 280.875 28.6146 281.925C29.1813 282.975 29.948 283.783 30.9146 284.35C31.898 284.917 32.998 285.2 34.2146 285.2ZM55.143 287L50.993 279.875H48.243V287H45.968V269.575H51.593C52.9096 269.575 54.018 269.8 54.918 270.25C55.8346 270.7 56.518 271.308 56.968 272.075C57.418 272.842 57.643 273.717 57.643 274.7C57.643 275.9 57.293 276.958 56.593 277.875C55.9096 278.792 54.8763 279.4 53.493 279.7L57.868 287H55.143ZM48.243 278.05H51.593C52.8263 278.05 53.7513 277.75 54.368 277.15C54.9846 276.533 55.293 275.717 55.293 274.7C55.293 273.667 54.9846 272.867 54.368 272.3C53.768 271.733 52.843 271.45 51.593 271.45H48.243V278.05ZM70.6279 287L63.4529 279.05V287H61.1779V269.575H63.4529V277.65L70.6529 269.575H73.5279L65.6279 278.3L73.6029 287H70.6279ZM96.2338 269.575V287H93.9588V279.1H85.0838V287H82.8088V269.575H85.0838V277.225H93.9588V269.575H96.2338ZM110.418 283.125H102.818L101.418 287H99.0184L105.318 269.675H107.943L114.218 287H111.818L110.418 283.125ZM109.768 281.275L106.618 272.475L103.468 281.275H109.768ZM126.139 287L121.989 279.875H119.239V287H116.964V269.575H122.589C123.906 269.575 125.014 269.8 125.914 270.25C126.831 270.7 127.514 271.308 127.964 272.075C128.414 272.842 128.639 273.717 128.639 274.7C128.639 275.9 128.289 276.958 127.589 277.875C126.906 278.792 125.872 279.4 124.489 279.7L128.864 287H126.139ZM119.239 278.05H122.589C123.822 278.05 124.747 277.75 125.364 277.15C125.981 276.533 126.289 275.717 126.289 274.7C126.289 273.667 125.981 272.867 125.364 272.3C124.764 271.733 123.839 271.45 122.589 271.45H119.239V278.05ZM137.599 269.575C139.499 269.575 141.141 269.933 142.524 270.65C143.924 271.35 144.991 272.358 145.724 273.675C146.474 274.992 146.849 276.542 146.849 278.325C146.849 280.108 146.474 281.658 145.724 282.975C144.991 284.275 143.924 285.275 142.524 285.975C141.141 286.658 139.499 287 137.599 287H132.174V269.575H137.599ZM137.599 285.125C139.849 285.125 141.566 284.533 142.749 283.35C143.932 282.15 144.524 280.475 144.524 278.325C144.524 276.158 143.924 274.467 142.724 273.25C141.541 272.033 139.832 271.425 137.599 271.425H134.449V285.125H137.599ZM165.24 278.025C165.873 278.125 166.448 278.383 166.965 278.8C167.498 279.217 167.915 279.733 168.215 280.35C168.532 280.967 168.69 281.625 168.69 282.325C168.69 283.208 168.465 284.008 168.015 284.725C167.565 285.425 166.907 285.983 166.04 286.4C165.19 286.8 164.182 287 163.015 287H156.515V269.575H162.765C163.948 269.575 164.957 269.775 165.79 270.175C166.623 270.558 167.248 271.083 167.665 271.75C168.082 272.417 168.29 273.167 168.29 274C168.29 275.033 168.007 275.892 167.44 276.575C166.89 277.242 166.157 277.725 165.24 278.025ZM158.79 277.1H162.615C163.682 277.1 164.507 276.85 165.09 276.35C165.673 275.85 165.965 275.158 165.965 274.275C165.965 273.392 165.673 272.7 165.09 272.2C164.507 271.7 163.665 271.45 162.565 271.45H158.79V277.1ZM162.815 285.125C163.948 285.125 164.832 284.858 165.465 284.325C166.098 283.792 166.415 283.05 166.415 282.1C166.415 281.133 166.082 280.375 165.415 279.825C164.748 279.258 163.857 278.975 162.74 278.975H158.79V285.125H162.815ZM174.072 269.575V280.6C174.072 282.15 174.447 283.3 175.197 284.05C175.964 284.8 177.022 285.175 178.372 285.175C179.705 285.175 180.747 284.8 181.497 284.05C182.264 283.3 182.647 282.15 182.647 280.6V269.575H184.922V280.575C184.922 282.025 184.63 283.25 184.047 284.25C183.464 285.233 182.672 285.967 181.672 286.45C180.689 286.933 179.58 287.175 178.347 287.175C177.114 287.175 175.997 286.933 174.997 286.45C174.014 285.967 173.23 285.233 172.647 284.25C172.08 283.25 171.797 282.025 171.797 280.575V269.575H174.072ZM199.442 269.575V271.425H194.692V287H192.417V271.425H187.642V269.575H199.442ZM214.432 287.175C213.282 287.175 212.249 286.975 211.332 286.575C210.432 286.158 209.724 285.592 209.207 284.875C208.691 284.142 208.424 283.3 208.407 282.35H210.832C210.916 283.167 211.249 283.858 211.832 284.425C212.432 284.975 213.299 285.25 214.432 285.25C215.516 285.25 216.366 284.983 216.982 284.45C217.616 283.9 217.932 283.2 217.932 282.35C217.932 281.683 217.749 281.142 217.382 280.725C217.016 280.308 216.557 279.992 216.007 279.775C215.457 279.558 214.716 279.325 213.782 279.075C212.632 278.775 211.707 278.475 211.007 278.175C210.324 277.875 209.732 277.408 209.232 276.775C208.749 276.125 208.507 275.258 208.507 274.175C208.507 273.225 208.749 272.383 209.232 271.65C209.716 270.917 210.391 270.35 211.257 269.95C212.141 269.55 213.149 269.35 214.282 269.35C215.916 269.35 217.249 269.758 218.282 270.575C219.332 271.392 219.924 272.475 220.057 273.825H217.557C217.474 273.158 217.124 272.575 216.507 272.075C215.891 271.558 215.074 271.3 214.057 271.3C213.107 271.3 212.332 271.55 211.732 272.05C211.132 272.533 210.832 273.217 210.832 274.1C210.832 274.733 211.007 275.25 211.357 275.65C211.724 276.05 212.166 276.358 212.682 276.575C213.216 276.775 213.957 277.008 214.907 277.275C216.057 277.592 216.982 277.908 217.682 278.225C218.382 278.525 218.982 279 219.482 279.65C219.982 280.283 220.232 281.15 220.232 282.25C220.232 283.1 220.007 283.9 219.557 284.65C219.107 285.4 218.441 286.008 217.557 286.475C216.674 286.942 215.632 287.175 214.432 287.175ZM241.255 269.7V287H238.98V274.1L233.23 287H231.63L225.855 274.075V287H223.58V269.7H226.03L232.43 284L238.83 269.7H241.255ZM255.413 283.125H247.813L246.413 287H244.013L250.313 269.675H252.938L259.213 287H256.813L255.413 283.125ZM254.763 281.275L251.613 272.475L248.463 281.275H254.763ZM271.134 287L266.984 279.875H264.234V287H261.959V269.575H267.584C268.901 269.575 270.009 269.8 270.909 270.25C271.826 270.7 272.509 271.308 272.959 272.075C273.409 272.842 273.634 273.717 273.634 274.7C273.634 275.9 273.284 276.958 272.584 277.875C271.901 278.792 270.868 279.4 269.484 279.7L273.859 287H271.134ZM264.234 278.05H267.584C268.818 278.05 269.743 277.75 270.359 277.15C270.976 276.533 271.284 275.717 271.284 274.7C271.284 273.667 270.976 272.867 270.359 272.3C269.759 271.733 268.834 271.45 267.584 271.45H264.234V278.05ZM287.894 269.575V271.425H283.144V287H280.869V271.425H276.094V269.575H287.894Z" fill="white"/>
<path d="M144.469 81.9874C144.27 82.2005 144.147 82.4734 144.12 82.7635C144.092 83.0536 144.162 83.3446 144.317 83.5912C144.472 83.8378 144.705 84.026 144.978 84.1267C145.252 84.2273 145.551 84.2346 145.829 84.1475C146.495 83.9341 146.969 84.1941 147.249 84.9275C147.305 85.0801 147.417 85.2059 147.564 85.28C147.71 85.3541 147.879 85.371 148.039 85.3275C149.499 84.9275 150.812 85.1808 151.979 86.0875C152.219 86.2808 152.492 86.3774 152.799 86.3774L159.709 86.3675C160.034 86.3673 160.349 86.2658 160.609 86.0775C160.975 85.8041 161.355 85.5608 161.749 85.3475C162.149 85.1275 162.482 84.8408 162.749 84.4874C167.315 78.3408 173.385 75.2908 180.959 75.3375C186.565 75.3708 191.312 75.1708 195.199 74.7374C195.536 74.7051 195.855 74.5687 196.109 74.3475C199.635 71.2741 202.259 69.3741 203.979 68.6475C207.865 67.0141 210.949 66.3874 213.229 66.7674C216.329 67.2874 222.699 68.1274 222.289 63.2674C221.529 54.1274 221.639 43.5075 219.499 35.3575C218.439 31.3308 216.942 27.3341 215.009 23.3675C213.829 20.9475 212.639 20.3075 209.889 19.9275C203.895 19.1075 197.995 18.1041 192.189 16.9175C191.808 16.8405 191.449 16.6821 191.135 16.453C190.821 16.224 190.561 15.9297 190.372 15.5905C190.183 15.2513 190.07 14.8752 190.04 14.488C190.01 14.1008 190.064 13.7117 190.199 13.3475C191.725 9.20079 193.455 5.34745 195.389 1.78745C197.329 -1.78255 204.259 0.817454 206.769 2.50745C211.569 5.74745 216.172 9.24079 220.579 12.9875C222.552 14.6608 224.342 16.6908 225.949 19.0775C237.249 35.8175 248.719 50.0875 251.839 69.8475C252.059 71.2608 251.469 72.7108 250.069 74.1975C244.335 80.2975 238.462 86.2541 232.449 92.0675C227.282 97.0608 221.349 100.714 214.649 103.027C210.969 104.297 206.379 104.937 202.239 105.797C190.939 108.147 191.819 118.627 189.689 127.897C189.195 130.044 188.412 132.474 187.339 135.187C185.232 140.534 183.365 145.961 181.739 151.467C180.249 156.537 178.459 160.957 176.659 165.707C173.209 174.817 174.879 182.027 177.029 191.147C177.482 193.047 178.042 196.067 178.709 200.207C179.562 205.507 181.072 211.014 183.239 216.727C183.302 216.898 183.323 217.082 183.3 217.263C183.277 217.444 183.212 217.616 183.109 217.765C183.005 217.915 182.868 218.037 182.708 218.12C182.548 218.204 182.369 218.248 182.189 218.247L105.199 218.237C104.725 218.237 104.559 218.011 104.699 217.557C106.469 211.817 109.299 206.057 110.409 200.687C111.549 195.181 112.445 189.197 113.099 182.737C113.599 177.747 113.199 173.877 111.159 169.137C108.579 163.164 105.145 157.767 100.859 152.947C100.793 152.873 100.711 152.813 100.619 152.773C100.528 152.733 100.429 152.713 100.329 152.715C100.229 152.717 100.131 152.741 100.041 152.784C99.9514 152.828 99.872 152.89 99.8087 152.967C97.1587 156.177 94.8187 159.887 92.0087 162.547C84.1387 169.997 74.1687 174.837 64.7087 179.297C60.2087 181.417 52.1287 182.797 47.8387 179.807C44.1887 177.257 40.7587 168.067 39.4687 163.857C38.2687 159.957 37.8254 155.971 38.1387 151.897C38.1575 151.583 38.0535 151.274 37.8487 151.037C36.6587 149.657 37.0487 145.007 37.1087 142.457C37.2087 137.907 38.5587 132.837 38.7587 127.877C39.3487 113.677 45.8687 103.317 53.6287 91.5375C54.1954 90.6841 54.8087 90.0341 55.4687 89.5875C55.7554 89.3941 56.0654 89.3441 56.3987 89.4375C60.8487 90.6375 68.4887 93.2775 69.6887 98.3675C70.1687 100.447 68.2287 101.657 67.2087 102.837C64.0887 106.457 60.9287 109.391 57.7287 111.637C50.9087 116.427 51.7487 122.327 54.2087 129.687C55.8754 134.667 58.5287 139.134 62.1687 143.087C62.4821 143.427 62.7021 143.757 62.8287 144.077C62.8629 144.168 62.9254 144.245 63.0069 144.297C63.0883 144.35 63.1845 144.374 63.281 144.367C63.3776 144.361 63.4694 144.323 63.5429 144.26C63.6163 144.197 63.6675 144.112 63.6887 144.017C64.5487 140.304 66.4021 137.177 69.2487 134.637C71.5287 132.607 74.5987 130.867 75.5787 127.847C77.4687 122.027 80.7487 116.047 84.2787 111.917C89.5187 105.797 99.7787 103.287 107.739 103.897C107.889 103.91 108.04 103.891 108.182 103.841C108.323 103.791 108.452 103.711 108.559 103.607L117.429 94.8774C117.603 94.7103 117.709 94.4862 117.729 94.2475C118.669 83.3475 107.609 77.4175 99.3087 72.2575C96.0221 70.2175 93.6954 67.3941 92.3287 63.7875C90.5887 59.2175 91.6887 53.9975 93.1587 49.3975C93.8454 47.2375 94.9621 45.4675 96.5087 44.0875C104.339 37.0975 112.929 32.8475 123.049 37.1475C127.199 38.9075 130.409 43.5174 133.489 46.9074C136.949 50.7274 139.139 55.6175 142.569 59.7775C142.795 60.0508 142.825 60.3441 142.659 60.6574L142.379 61.1675C142.212 61.4741 142.189 61.7908 142.309 62.1175C143.602 65.6175 144.862 69.1208 146.089 72.6274C146.882 74.8808 147.229 76.8975 147.129 78.6775C147.115 79.0241 146.985 79.3275 146.739 79.5875L144.469 81.9874Z" fill="white"/>
</svg>
